<?xml version="1.0" encoding="UTF-8"?><svg id="icon-adaptive" xmlns="http://www.w3.org/2000/svg" xmlns:xlink="http://www.w3.org/1999/xlink" viewBox="0 0 108 108"><defs><clipPath id="clippath"><rect id="mask" x="21" y="21" width="66" height="66" rx="5.64" ry="5.64" style="fill:none; stroke-width:0px;"/></clipPath><clipPath id="clippath-1"><path id="sclera_clip" d="M36.21,45.43c-2.49.23-3.31.8-4.63,2.12s-4.39,6.86-2.42,13.74c.81,2.83,2.02,4.04,5.25,4.44,2.44.3,6.87,0,8.37-1.22,1.64-1.33,2.27-3.95,2.03-8.51-.21-4-.66-5.95-2.42-8.05-.12-.14-2.54-2.86-6.18-2.53Z" style="fill:none; stroke-width:0px;"/></clipPath><clipPath id="clippath-2"><path id="sclera_clip-2" d="M72.06,45.32c2.49.23,3.31.8,4.63,2.12s4.39,6.86,2.42,13.74c-.81,2.83-2.02,4.04-5.25,4.44-2.44.3-6.87,0-8.37-1.22-1.64-1.33-2.27-3.95-2.03-8.51.21-4,.66-5.95,2.42-8.05.12-.14,2.54-2.86,6.18-2.53Z" style="fill:none; stroke-width:0px;"/></clipPath></defs><rect id="background" x="0" y="0" width="108" height="108" style="fill:#fbf4a3; stroke-width:0px;"/><g id="foreground"><g style="clip-path:url(#clippath);"><g id="skin-2"><rect x="21" y="21" width="66" height="66" style="fill:#f9e3d5; stroke-width:0px;"/></g><path id="hair" d="M56.47,50.37c-5.53-6.15-6.14-7.37-9.22-11.64-1.01-1.4-1.74-2.59-2.38-3.69,12.16,13.45,26.17,17.78,32.71,19.26-2.33-1.65-4.75-3.49-7.22-5.56-2.39-2.01-8.04-6.76-12.55-12.47-.84-1.06-1.81-2.38-2.84-3.96.72.64,1.41,1.24,2.06,1.8,7.2,6.11,13.58,9.87,19.67,13.43,1.55.9,3.03,1.74,4.46,2.52.07,1.89.09,3.62.09,5.18-.02,6.32-.07,11.45-1.51,17.97-1.21,5.47-2.17,7.5-3.68,11.39-.48,1.24.91-.14,1.59-.77s2.65-2.52,3.49-4.01c.39-.7-.78,4.91-1.22,7.2h7.08V21H21v53.85s.02-.05.04-.07c1.17,2.07,3.58,3.85,7.27,5.07.65.22,1.23.4,1.8.59.25.08.46-.2.32-.42-.84-1.29-1.91-3.09-2.88-5.33-2.85-6.59-2.74-12.12-2.59-19.69.13-6.38.98-10.43,1.4-12.23.22-.94,1.36-4.99,1.97-7.71,1.56,8.32,4.19,18.7,11.32,24.69.93.66.97-.52.35-1.75-1.24-2.32-2.08-4.3-2.92-6.83-1.56-4.8-2.97-9.28-3.25-14.28-.08-1.17,0-3.67.61-4.89,2.44,4.28,6.01,7.44,7.33,8.56,7.94,6.72,11.82,10.75,16.96,13.43.55.29.99-.56.51-1-.9-.82-1.91-1.66-2.77-2.62Z" style="fill:#2d241f; stroke-width:0px;"/><g id="eyeAL"><ellipse id="eyebag" cx="43.54" cy="67.03" rx="3.81" ry="1.83" transform="translate(-24.49 25.07) rotate(-25.33)" style="fill:#b07583; stroke-width:0px;"/><path id="top_brow" d="M42.71,64.48c.47-4.33,3.11-4.94,2.94-10.09-.19-5.98-2.76-9.09-3.69-10.12-2.02-1.21-5.12-2.64-7.94-1.83-3.9,1.11-6.46,4.03-6.95,4.68-2.73,3.62-2.85,7.53-2.83,8.89,5.91.16,11.81.32,17.72.48.25,2.66.5,5.33.75,7.99Z" style="fill:#000; stroke-width:0px;"/><path id="sclera" d="M36.14,45.4c-2.49.23-3.31.8-4.63,2.12s-4.39,6.86-2.42,13.74c.81,2.83,2.02,4.04,5.25,4.44,2.44.3,6.87,0,8.37-1.22,1.64-1.33,2.27-3.95,2.03-8.51-.21-4-.66-5.95-2.42-8.05-.12-.14-2.54-2.86-6.18-2.53Z" style="fill:#fff; stroke-width:0px;"/><g id="pupil"><g style="clip-path:url(#clippath-1);"><g id="pupil-2"><path d="M46.87,57.34c0,.75-.06,1.49-.18,2.2-.74,4.55-3.74,7.95-7.34,7.95-3.37,0-6.22-3-7.18-7.12h0c-.22-.96-.34-1.97-.34-3.02,0-5.6,3.36-10.14,7.52-10.14s7.52,4.54,7.52,10.14Z" style="fill:#4c2818; stroke-width:0px;"/><path d="M46.7,59.54c-.74,4.55-3.74,7.95-7.34,7.95-3.37,0-6.22-3-7.18-7.12h0c1.78-1.81,4.58-2.97,7.73-2.97,2.64,0,5.03.82,6.78,2.14Z" style="fill:#a56334; stroke-width:0px;"/></g><ellipse id="iris" cx="39.82" cy="57.41" rx="3.97" ry="5.19" style="fill:#dac982; stroke-width:0px;"/></g></g><g id="eyebrows"><path d="M29.91,63.59c-.29.21-.57.42-.83.66s-.48.51-.69.8c-.07.1-.1.21-.11.33-.03.12-.02.24.02.36.03.12.08.22.16.31.06.1.15.18.25.23.21.11.46.17.69.09l.21-.09c.14-.08.24-.19.32-.32.03-.04.06-.08.08-.12l-.14.18c.25-.32.55-.6.88-.85l-.18.14c.08-.06.15-.12.23-.17.1-.06.19-.13.25-.23.08-.09.13-.19.16-.31.04-.12.04-.24.02-.36,0-.12-.04-.23-.11-.33-.12-.19-.31-.36-.54-.41s-.5-.05-.69.09h0Z" style="fill:#000; stroke-width:0px;"/><path d="M31.21,64.75c-.41.47-.78.99-1.08,1.54-.11.21-.16.46-.09.69.06.21.22.44.41.54.21.11.46.17.69.09.22-.07.43-.21.54-.41.19-.36.41-.7.66-1.02l-.14.18c.09-.11.18-.23.28-.34.16-.18.26-.39.26-.64,0-.22-.1-.48-.26-.64s-.4-.27-.64-.26-.48.08-.64.26h0Z" style="fill:#000; stroke-width:0px;"/><path d="M32.98,65.54c-.26.52-.48,1.07-.66,1.63-.07.22-.02.5.09.69s.32.36.54.41c.23.05.49.04.69-.09s.34-.31.41-.54c.1-.3.2-.59.32-.88l-.09.21c.08-.18.16-.36.25-.53.11-.22.16-.45.09-.69-.06-.21-.22-.44-.41-.54-.21-.11-.46-.17-.69-.09-.22.07-.43.2-.54.41h0Z" style="fill:#000; stroke-width:0px;"/></g></g><g id="eyeAR"><ellipse id="eyebag-2" cx="64.73" cy="66.92" rx="1.83" ry="3.81" transform="translate(-23.44 96.8) rotate(-64.67)" style="fill:#b07583; stroke-width:0px;"/><path id="top_brow-2" d="M65.56,64.37c-.47-4.33-3.11-4.94-2.94-10.09.19-5.98,2.76-9.09,3.69-10.12,2.02-1.21,5.12-2.64,7.94-1.83,3.9,1.11,6.46,4.03,6.95,4.68,2.73,3.62,2.85,7.53,2.83,8.89-5.91.16-11.81.32-17.72.48-.25,2.66-.5,5.33-.75,7.99Z" style="fill:#000; stroke-width:0px;"/><path id="sclera-2" d="M72.13,45.28c2.49.23,3.31.8,4.63,2.12s4.39,6.86,2.42,13.74c-.81,2.83-2.02,4.04-5.25,4.44-2.44.3-6.87,0-8.37-1.22-1.64-1.33-2.27-3.95-2.03-8.51.21-4,.66-5.95,2.42-8.05.12-.14,2.54-2.86,6.18-2.53Z" style="fill:#fff; stroke-width:0px;"/><g id="pupil-3"><g style="clip-path:url(#clippath-2);"><g id="pupil-4"><path d="M61.4,57.23c0,.75.06,1.49.18,2.2.74,4.55,3.74,7.95,7.34,7.95,3.37,0,6.22-3,7.18-7.12h0c.22-.96.34-1.97.34-3.02,0-5.6-3.36-10.14-7.52-10.14s-7.52,4.54-7.52,10.14Z" style="fill:#4c2818; stroke-width:0px;"/><path d="M61.58,59.43c.74,4.55,3.74,7.95,7.34,7.95,3.37,0,6.22-3,7.18-7.12h0c-1.78-1.81-4.58-2.97-7.73-2.97-2.64,0-5.03.82-6.78,2.14Z" style="fill:#a56334; stroke-width:0px;"/></g><ellipse id="iris-2" cx="68.45" cy="57.29" rx="3.97" ry="5.19" style="fill:#dac982; stroke-width:0px;"/></g></g><g id="eyebrows-2"><path d="M77.45,65.03c.08.06.16.12.23.17l-.18-.14c.32.25.63.53.88.85l-.14-.18s.06.08.08.12c.06.1.13.19.23.25.09.08.19.13.31.16.12.04.24.04.36.02.12,0,.23-.04.33-.11.19-.12.36-.31.41-.54s.05-.5-.09-.69c-.2-.29-.43-.56-.69-.8s-.54-.46-.83-.66c-.1-.07-.21-.1-.33-.11-.12-.03-.24-.02-.36.02-.12.03-.22.08-.31.16-.1.06-.18.15-.23.25-.11.21-.17.46-.09.69l.09.21c.08.14.19.24.32.32h0Z" style="fill:#000; stroke-width:0px;"/><path d="M75.79,65.91c.1.11.19.22.28.34l-.14-.18c.25.32.47.66.66,1.02.1.19.33.36.54.41.12.04.24.04.36.02.12,0,.23-.04.33-.11.19-.12.36-.31.41-.54.06-.24.03-.47-.09-.69-.29-.55-.66-1.07-1.08-1.54-.08-.09-.18-.15-.29-.19-.11-.06-.22-.08-.35-.08-.22,0-.48.1-.64.26s-.27.4-.26.64l.03.24c.04.15.12.28.23.4h0Z" style="fill:#000; stroke-width:0px;"/><path d="M73.74,66.33c.09.17.17.35.25.53l-.09-.21c.12.29.23.58.32.88.07.22.21.42.41.54s.48.16.69.09.43-.21.54-.41.16-.46.09-.69c-.18-.56-.39-1.11-.66-1.63-.1-.19-.33-.36-.54-.41-.22-.06-.5-.03-.69.09s-.36.31-.41.54l-.03.24c0,.16.04.31.12.45h0Z" style="fill:#000; stroke-width:0px;"/></g></g><g id="balls"><path d="M25.31,34.18c-.22,0-.45-.03-.66-.09-1.27-.36-2.01-1.69-1.64-2.96.29-1.02,1.24-1.74,2.3-1.74.22,0,.45.03.66.09,1.27.36,2.01,1.69,1.64,2.96-.29,1.02-1.24,1.74-2.3,1.74Z" style="fill:#986672; stroke-width:0px;"/><path d="M25.31,29.88c.17,0,.35.02.52.07,1.01.29,1.59,1.34,1.3,2.35-.24.83-1,1.37-1.82,1.37-.17,0-.35-.02-.52-.07-1.01-.29-1.59-1.34-1.3-2.35.24-.83,1-1.37,1.82-1.37M25.31,28.88h0c-1.28,0-2.43.86-2.78,2.1-.21.74-.12,1.53.25,2.2.38.68.99,1.17,1.74,1.38.26.07.53.11.8.11,1.28,0,2.43-.86,2.78-2.1.44-1.54-.45-3.14-1.99-3.58-.26-.07-.53-.11-.8-.11h0Z" style="fill:#986672; stroke-width:0px;"/><path d="M28.17,27.9c-.22,0-.45-.03-.66-.09-.62-.18-1.13-.58-1.44-1.14-.31-.56-.38-1.21-.21-1.82.29-1.02,1.24-1.74,2.3-1.74.22,0,.45.03.66.09.62.18,1.12.58,1.44,1.14s.38,1.21.21,1.82c-.29,1.02-1.24,1.74-2.3,1.74Z" style="fill:#986672; stroke-width:0px;"/><path d="M28.17,23.6c.17,0,.35.02.52.07,1.01.29,1.59,1.34,1.3,2.35-.24.83-1,1.37-1.82,1.37-.17,0-.35-.02-.52-.07-1.01-.29-1.59-1.34-1.3-2.35.24-.83,1-1.37,1.82-1.37M28.17,22.6h0c-1.28,0-2.43.86-2.78,2.1-.44,1.54.45,3.14,1.99,3.58.26.07.53.11.8.11,1.28,0,2.43-.86,2.78-2.1.44-1.54-.45-3.14-1.99-3.58-.26-.07-.53-.11-.8-.11h0Z" style="fill:#986672; stroke-width:0px;"/></g><path id="mouth" d="M45.44,76l.39,1.04c.07.14.34.19.5.19l6.36-.3c.87-.04,1.73-.04,2.6,0l6.41.3c.17,0,.42.01.49-.14l.36-1.09" style="fill:none; stroke:#000; stroke-linecap:round; stroke-miterlimit:10; stroke-width:2px;"/></g></g></svg>