<?xml version="1.0" encoding="UTF-8"?><svg id="icon-colour" xmlns="http://www.w3.org/2000/svg" xmlns:xlink="http://www.w3.org/1999/xlink" viewBox="0 0 108 108"><defs><clipPath id="clippath"><rect x="0" y="0" width="108" height="108" rx="8" ry="8" style="fill:none; stroke-width:0px;"/></clipPath><clipPath id="clippath-1"><path id="sclera_clip" d="M24.89,39.98c-4.07.37-5.42,1.31-7.58,3.48s-7.18,11.22-3.97,22.48c1.32,4.63,3.31,6.61,8.6,7.27,3.99.5,11.24,0,13.7-1.99,2.68-2.17,3.71-6.47,3.32-13.92-.34-6.55-1.08-9.74-3.96-13.17-.19-.23-4.16-4.69-10.11-4.15Z" style="fill:none; stroke-width:0px;"/></clipPath><clipPath id="clippath-2"><path id="sclera_clip-2" d="M83.55,39.8c4.07.37,5.42,1.31,7.58,3.48,2.16,2.16,7.18,11.22,3.97,22.48-1.32,4.63-3.31,6.61-8.6,7.27-3.99.5-11.24,0-13.7-1.99-2.68-2.17-3.71-6.47-3.32-13.92.34-6.55,1.08-9.74,3.96-13.17.19-.23,4.16-4.69,10.11-4.15Z" style="fill:none; stroke-width:0px;"/></clipPath></defs><g id="icon"><g style="clip-path:url(#clippath);"><rect width="108" height="108" style="fill:#f9e3d5; stroke-width:0px;"/><path id="hair" d="M58.04,48.06c-9.04-10.06-10.04-12.06-15.09-19.04-1.66-2.3-2.85-4.24-3.89-6.04,19.89,22.01,42.82,29.1,53.52,31.51-3.82-2.69-7.78-5.72-11.81-9.11-3.92-3.3-13.16-11.07-20.53-20.4-1.37-1.74-2.97-3.9-4.65-6.48,1.18,1.05,2.31,2.04,3.38,2.95,11.78,10,22.22,16.16,32.19,21.97,2.53,1.48,4.96,2.84,7.3,4.12.11,3.09.15,5.93.14,8.47-.03,10.35-.11,18.73-2.47,29.41-1.98,8.94-3.54,12.27-6.02,18.64-.79,2.03,1.49-.23,2.6-1.27s4.34-4.13,5.71-6.57c.64-1.14-1.27,8.03-1.99,11.78,0,0,11.58,0,11.58,0V0H0v88.12s.04-.08.06-.12c1.91,3.39,5.86,6.3,11.9,8.29,1.06.36,2.01.65,2.95.96.41.13.76-.32.52-.68-1.38-2.1-3.13-5.06-4.71-8.72-4.67-10.79-4.48-19.83-4.23-32.22.21-10.45,1.6-17.06,2.28-20.01.36-1.55,2.23-8.17,3.23-12.62,2.56,13.61,6.86,30.61,18.52,40.4,1.52,1.08,1.59-.86.57-2.86-2.03-3.79-3.4-7.04-4.78-11.18-2.55-7.86-4.86-15.19-5.32-23.37-.13-1.92,0-6,1-8,4,7,9.84,12.17,12,14,13,11,19.35,17.59,27.75,21.98.91.47,1.61-.92.83-1.63-1.48-1.34-3.12-2.72-4.53-4.29Z" style="fill:#2d241f; stroke-width:0px;"/><g id="eyeAL"><ellipse id="eyebag" cx="36.89" cy="75.32" rx="6.24" ry="3" transform="translate(-28.67 23.02) rotate(-25.33)" style="fill:#b07583; stroke-width:0px;"/><path id="top_brow" d="M35.52,71.16c.77-7.08,5.09-8.08,4.81-16.52-.31-9.78-4.51-14.88-6.04-16.56-3.31-1.98-8.37-4.32-13-3-6.38,1.82-10.57,6.6-11.37,7.66-4.47,5.92-4.66,12.33-4.63,14.55,9.67.26,19.33.53,29,.79.41,4.36.82,8.72,1.23,13.08Z" style="fill:#000; stroke-width:0px;"/><path id="sclera" d="M24.78,39.92c-4.07.37-5.42,1.31-7.58,3.48s-7.18,11.22-3.97,22.48c1.32,4.63,3.31,6.61,8.6,7.27,3.99.5,11.24,0,13.7-1.99,2.68-2.17,3.71-6.47,3.32-13.92-.34-6.55-1.08-9.74-3.96-13.17-.19-.23-4.16-4.69-10.11-4.15Z" style="fill:#fff; stroke-width:0px;"/><g id="pupil"><g style="clip-path:url(#clippath-1);"><g id="pupil-2"><path d="M42.34,59.47c0,1.23-.1,2.44-.29,3.59-1.21,7.44-6.12,13.01-12.01,13.01-5.52,0-10.19-4.91-11.74-11.65h0c-.36-1.57-.56-3.23-.56-4.95,0-9.17,5.5-16.6,12.3-16.6s12.3,7.43,12.3,16.6Z" style="fill:#4c2818; stroke-width:0px;"/><path d="M42.05,63.07c-1.21,7.44-6.12,13.01-12.01,13.01-5.52,0-10.19-4.91-11.74-11.65h0c2.92-2.96,7.5-4.86,12.65-4.86,4.32,0,8.23,1.34,11.1,3.51Z" style="fill:#a56334; stroke-width:0px;"/></g><ellipse id="iris" cx="30.8" cy="59.57" rx="6.5" ry="8.5" style="fill:#dac982; stroke-width:0px;"/></g></g><g id="eyebrows"><path d="M14.87,70.19c-.43.31-.85.64-1.24,1s-.73.76-1.04,1.19c-.13.18-.15.49-.09.69s.22.44.41.54c.21.11.46.17.69.09l.21-.09c.14-.08.24-.19.32-.32.05-.06.09-.13.14-.19l-.14.18c.41-.53.91-.98,1.43-1.39l-.18.14c.13-.1.25-.19.38-.29.2-.14.35-.3.41-.54.06-.22.03-.5-.09-.69s-.31-.36-.54-.41-.5-.05-.69.09h0Z" style="fill:#000; stroke-width:0px;"/><path d="M17.11,71.99c-.65.74-1.21,1.54-1.67,2.41-.11.21-.16.46-.09.69.06.21.22.44.41.54.21.11.46.17.69.09.22-.07.43-.21.54-.41.31-.59.67-1.15,1.08-1.68l-.14.18c.15-.19.3-.37.45-.55s.26-.39.26-.64c0-.22-.1-.48-.26-.64s-.4-.27-.64-.26-.48.08-.64.26h0Z" style="fill:#000; stroke-width:0px;"/><path d="M20.09,73.17c-.41.81-.75,1.66-1.02,2.53-.14.45.17,1,.63,1.11.49.11.95-.15,1.11-.63s.33-.97.53-1.45l-.09.21c.12-.29.26-.58.4-.86.11-.22.16-.45.09-.69-.06-.21-.22-.44-.41-.54-.41-.22-1-.13-1.23.32h0Z" style="fill:#000; stroke-width:0px;"/></g></g><g id="eyeAR"><ellipse id="eyebag-2" cx="71.55" cy="75.13" rx="3" ry="6.24" transform="translate(-26.97 107.67) rotate(-64.67)" style="fill:#b07583; stroke-width:0px;"/><path id="top_brow-2" d="M72.92,70.97c-.77-7.08-5.09-8.08-4.81-16.52.31-9.78,4.51-14.88,6.04-16.56,3.31-1.98,8.37-4.32,13-3,6.38,1.82,10.57,6.6,11.37,7.66,4.47,5.92,4.66,12.33,4.63,14.55-9.67.26-19.33.53-29,.79-.41,4.36-.82,8.72-1.23,13.08Z" style="fill:#000; stroke-width:0px;"/><path id="sclera-2" d="M83.67,39.74c4.07.37,5.42,1.31,7.58,3.48,2.16,2.16,7.18,11.22,3.97,22.48-1.32,4.63-3.31,6.61-8.6,7.27-3.99.5-11.24,0-13.7-1.99-2.68-2.17-3.71-6.47-3.32-13.92.34-6.55,1.08-9.74,3.96-13.17.19-.23,4.16-4.69,10.11-4.15Z" style="fill:#fff; stroke-width:0px;"/><g id="pupil-3"><g style="clip-path:url(#clippath-2);"><g id="pupil-4"><path d="M66.11,59.29c0,1.23.1,2.44.29,3.59,1.21,7.44,6.12,13.01,12.01,13.01,5.52,0,10.19-4.91,11.74-11.65h0c.36-1.57.56-3.23.56-4.95,0-9.17-5.5-16.6-12.3-16.6s-12.3,7.43-12.3,16.6Z" style="fill:#4c2818; stroke-width:0px;"/><path d="M66.4,62.88c1.21,7.44,6.12,13.01,12.01,13.01,5.52,0,10.19-4.91,11.74-11.65h0c-2.92-2.96-7.5-4.86-12.65-4.86-4.32,0-8.23,1.34-11.1,3.51Z" style="fill:#a56334; stroke-width:0px;"/></g><ellipse id="iris-2" cx="77.65" cy="59.39" rx="6.5" ry="8.5" style="fill:#dac982; stroke-width:0px;"/></g></g><g id="eyebrows-2"><path d="M92.66,71.56c.13.09.26.19.38.29l-.18-.14c.53.41,1.02.86,1.43,1.39l-.14-.18c.05.06.09.12.14.19.14.2.3.35.54.41.22.06.5.03.69-.09s.36-.31.41-.54.05-.5-.09-.69c-.3-.43-.65-.83-1.04-1.19s-.81-.69-1.24-1c-.18-.13-.49-.15-.69-.09s-.44.22-.54.41c-.11.21-.17.46-.09.69l.09.21c.08.14.19.24.32.32h0Z" style="fill:#000; stroke-width:0px;"/><path d="M90.07,73.08c.16.18.31.36.45.55l-.14-.18c.41.53.77,1.09,1.08,1.68.22.42.83.58,1.23.32.42-.27.56-.79.32-1.23-.46-.87-1.03-1.67-1.67-2.41-.15-.17-.42-.26-.64-.26s-.48.1-.64.26-.27.4-.26.64.1.45.26.64h0Z" style="fill:#000; stroke-width:0px;"/><path d="M86.8,73.89c.14.28.28.57.4.86l-.09-.21c.2.47.37.96.53,1.45.07.22.21.42.41.54s.48.16.69.09c.45-.15.78-.63.63-1.11-.28-.87-.61-1.72-1.02-2.53-.1-.19-.33-.36-.54-.41-.22-.06-.5-.03-.69.09-.43.28-.55.78-.32,1.23h0Z" style="fill:#000; stroke-width:0px;"/></g></g><g id="balls"><path d="M7.06,21.24c-.33,0-.67-.05-.99-.14-1.91-.55-3.02-2.55-2.47-4.46.44-1.54,1.86-2.61,3.46-2.61.33,0,.67.05.99.14.93.27,1.69.87,2.16,1.72.47.84.58,1.81.31,2.74-.44,1.54-1.86,2.61-3.46,2.61Z" style="fill:#986672; stroke-width:0px;"/><path d="M7.06,14.53c.28,0,.57.04.86.12,1.65.47,2.6,2.19,2.13,3.84-.39,1.36-1.63,2.25-2.98,2.25-.28,0-.57-.04-.86-.12-1.65-.47-2.6-2.19-2.13-3.84.39-1.36,1.63-2.25,2.98-2.25M7.06,13.53h0c-1.82,0-3.44,1.22-3.94,2.97-.62,2.18.64,4.45,2.81,5.07.37.11.75.16,1.13.16,1.82,0,3.44-1.22,3.94-2.97.62-2.18-.64-4.45-2.81-5.07-.37-.11-.75-.16-1.13-.16h0Z" style="fill:#986672; stroke-width:0px;"/><path d="M11.74,10.97c-.33,0-.67-.05-.99-.14-.93-.27-1.69-.87-2.16-1.72-.47-.84-.58-1.81-.31-2.74.44-1.54,1.86-2.61,3.46-2.61.33,0,.67.05.99.14,1.91.55,3.02,2.55,2.47,4.46-.44,1.54-1.86,2.61-3.46,2.61Z" style="fill:#986672; stroke-width:0px;"/><path d="M11.73,4.26c.28,0,.57.04.86.12,1.65.47,2.6,2.19,2.13,3.84-.39,1.36-1.63,2.25-2.98,2.25-.28,0-.57-.04-.86-.12-1.65-.47-2.6-2.19-2.13-3.84.39-1.36,1.63-2.25,2.98-2.25M11.74,3.26h0c-1.82,0-3.44,1.22-3.94,2.97-.62,2.18.64,4.45,2.81,5.07.37.11.75.16,1.13.16,1.82,0,3.44-1.22,3.94-2.97.62-2.18-.64-4.45-2.81-5.07-.37-.11-.75-.16-1.13-.16h0Z" style="fill:#986672; stroke-width:0px;"/></g><path id="mouth" d="M40,90l.64,1.69c.12.23.56.31.82.31l10.41-.48c1.42-.07,2.84-.07,4.25,0l10.5.49c.27,0,.68.02.79-.22l.58-1.78" style="fill:none; stroke:#000; stroke-linecap:round; stroke-miterlimit:10; stroke-width:2px;"/></g></g></svg>