<?xml version="1.0" encoding="UTF-8"?><svg id="icon-adaptive-themable" xmlns="http://www.w3.org/2000/svg" xmlns:xlink="http://www.w3.org/1999/xlink" viewBox="0 0 108 108"><defs><clipPath id="clippath"><rect id="mask" x="21" y="21" width="66" height="66" rx="5.64" ry="5.64" style="fill:none; stroke-width:0px;"/></clipPath><clipPath id="clippath-1"><path id="sclera_clip" d="M37.22,42.18c-2.33.21-3.1.76-4.34,2.01s-4.11,6.5-2.27,13.02c.76,2.68,1.89,3.83,4.92,4.21,2.28.29,6.43,0,7.84-1.15,1.53-1.26,2.12-3.75,1.9-8.06-.19-3.79-.62-5.64-2.27-7.63-.11-.13-2.38-2.71-5.79-2.4Z" style="fill:none; stroke-width:0px;"/></clipPath><clipPath id="clippath-2"><path id="sclera_clip-2" d="M70.78,42.07c2.33.21,3.1.76,4.34,2.01s4.11,6.5,2.27,13.02c-.76,2.68-1.89,3.83-4.92,4.21-2.28.29-6.43,0-7.84-1.15-1.53-1.26-2.12-3.75-1.9-8.06.19-3.79.62-5.64,2.27-7.63.11-.13,2.38-2.71,5.79-2.4Z" style="fill:none; stroke-width:0px;"/></clipPath></defs><rect id="background" x="0" y="0" width="108" height="108" style="fill:#fbf4a3; stroke-width:0px;"/><g id="foreground"><g style="clip-path:url(#clippath);"><g id="eyeAL_mono"><ellipse id="eyebag" cx="44.08" cy="62.64" rx="3.58" ry="1.73" transform="translate(-22.83 25.37) rotate(-25.75)" style="fill:#888; stroke-width:0px;"/><path id="top_brow" d="M43.3,60.23c.44-4.1,2.91-4.68,2.75-9.56-.18-5.66-2.58-8.62-3.46-9.59-1.89-1.15-4.79-2.5-7.44-1.74-3.65,1.05-6.05,3.82-6.51,4.44-2.56,3.43-2.67,7.14-2.65,8.42,5.53.15,11.06.31,16.6.46.23,2.52.47,5.05.7,7.57Z" style="fill:#000; stroke-width:0px;"/><path id="sclera" d="M37.15,42.14c-2.33.21-3.1.76-4.34,2.01s-4.11,6.5-2.27,13.02c.76,2.68,1.89,3.83,4.92,4.21,2.28.29,6.43,0,7.84-1.15,1.53-1.26,2.12-3.75,1.9-8.06-.19-3.79-.62-5.64-2.27-7.63-.11-.13-2.38-2.71-5.79-2.4Z" style="fill:#fff; stroke-width:0px;"/><g id="pupil"><g style="clip-path:url(#clippath-1);"><g id="pupil-2"><path d="M47.2,53.46c0,.71-.06,1.41-.17,2.08-.69,4.31-3.5,7.53-6.87,7.53-3.16,0-5.83-2.84-6.72-6.75h0c-.21-.91-.32-1.87-.32-2.86,0-5.31,3.15-9.61,7.04-9.61s7.04,4.3,7.04,9.61Z" style="fill:#333; stroke-width:0px;"/><path d="M47.03,55.54c-.69,4.31-3.5,7.53-6.87,7.53-3.16,0-5.83-2.84-6.72-6.75h0c1.67-1.72,4.29-2.82,7.24-2.82,2.47,0,4.71.77,6.35,2.03Z" style="fill:#767676; stroke-width:0px;"/></g><ellipse id="iris" cx="40.59" cy="53.52" rx="3.72" ry="4.92" style="fill:#c7c7c7; stroke-width:0px;"/></g></g><g id="eyebrows"><path d="M31.29,59.34c-.27.2-.54.41-.79.64s-.46.49-.65.77c-.07.1-.1.21-.11.33-.03.12-.02.24.02.36.03.12.08.22.16.31.06.1.15.18.25.23.21.11.46.17.69.09l.21-.09c.14-.08.24-.19.32-.32.03-.04.06-.08.09-.12l-.14.18c.24-.31.54-.58.86-.83l-.18.14c.06-.04.11-.09.17-.13.1-.06.19-.13.25-.23.08-.09.13-.19.16-.31.04-.12.04-.24.02-.36,0-.12-.04-.23-.11-.33-.12-.19-.31-.36-.54-.41l-.24-.03c-.16,0-.31.04-.45.12h0Z" style="fill:#000; stroke-width:0px;"/><path d="M32.49,60.44c-.39.45-.74.94-1.02,1.47-.11.21-.16.46-.09.69.06.21.22.44.41.54.21.11.46.17.69.09.22-.07.43-.21.54-.41.18-.35.39-.68.63-.99l-.14.18c.08-.1.16-.2.25-.3.09-.08.15-.18.19-.29.06-.11.08-.22.08-.35,0-.22-.1-.48-.26-.64s-.4-.27-.64-.26-.48.08-.64.26h0Z" style="fill:#000; stroke-width:0px;"/><path d="M34.14,61.2c-.25.5-.46,1.02-.62,1.55-.07.22-.02.5.09.69s.32.36.54.41c.23.05.49.04.69-.09s.34-.31.41-.54c.09-.29.19-.58.31-.86l-.09.21c.07-.16.14-.32.22-.48.11-.22.16-.45.09-.69-.06-.21-.22-.44-.41-.54-.21-.11-.46-.17-.69-.09-.22.07-.43.2-.54.41h0Z" style="fill:#000; stroke-width:0px;"/></g></g><g id="eyeAR_mono"><ellipse id="eyebag-2" cx="63.92" cy="62.53" rx="1.73" ry="3.58" transform="translate(-20.17 92.94) rotate(-64.25)" style="fill:#888; stroke-width:0px;"/><path id="top_brow-2" d="M64.7,60.12c-.44-4.1-2.91-4.68-2.75-9.56.18-5.66,2.58-8.62,3.46-9.59,1.89-1.15,4.79-2.5,7.44-1.74,3.65,1.05,6.05,3.82,6.51,4.44,2.56,3.43,2.67,7.14,2.65,8.42-5.53.15-11.06.31-16.6.46-.23,2.52-.47,5.05-.7,7.57Z" style="fill:#000; stroke-width:0px;"/><path id="sclera-2" d="M70.85,42.03c2.33.21,3.1.76,4.34,2.01,1.24,1.25,4.11,6.5,2.27,13.02-.76,2.68-1.89,3.83-4.92,4.21-2.28.29-6.43,0-7.84-1.15-1.53-1.26-2.12-3.75-1.9-8.06.19-3.79.62-5.64,2.27-7.63.11-.13,2.38-2.71,5.79-2.4Z" style="fill:#fff; stroke-width:0px;"/><g id="pupil-3"><g style="clip-path:url(#clippath-2);"><g id="pupil-4"><path d="M60.8,53.36c0,.71.06,1.41.17,2.08.69,4.31,3.5,7.53,6.87,7.53,3.16,0,5.83-2.84,6.72-6.75h0c.21-.91.32-1.87.32-2.86,0-5.31-3.15-9.61-7.04-9.61s-7.04,4.3-7.04,9.61Z" style="fill:#333; stroke-width:0px;"/><path d="M60.97,55.44c.69,4.31,3.5,7.53,6.87,7.53,3.16,0,5.83-2.84,6.72-6.75h0c-1.67-1.72-4.29-2.82-7.24-2.82-2.47,0-4.71.77-6.35,2.03Z" style="fill:#767676; stroke-width:0px;"/></g><ellipse id="iris-2" cx="67.41" cy="53.41" rx="3.72" ry="4.92" style="fill:#c7c7c7; stroke-width:0px;"/></g></g><g id="eyebrows-2"><path d="M75.8,60.79c.06.04.12.09.17.13l-.18-.14c.31.24.61.51.86.83l-.14-.18s.06.08.09.12c.06.1.13.19.23.25.09.08.19.13.31.16.12.04.24.04.36.02.12,0,.23-.04.33-.11.19-.12.36-.31.41-.54s.05-.5-.09-.69c-.19-.28-.41-.54-.65-.77s-.52-.44-.79-.64c-.1-.07-.21-.1-.33-.11-.12-.03-.24-.02-.36.02-.12.03-.22.08-.31.16-.1.06-.18.15-.23.25-.11.21-.17.46-.09.69l.09.21c.08.14.19.24.32.32h0Z" style="fill:#000; stroke-width:0px;"/><path d="M74.24,61.61c.08.1.17.2.25.3l-.14-.18c.24.31.45.64.63.99.1.19.33.36.54.41.12.04.24.04.36.02.12,0,.23-.04.33-.11.19-.12.36-.31.41-.54.06-.24.03-.47-.09-.69-.28-.53-.63-1.02-1.02-1.47-.08-.09-.18-.15-.29-.19-.11-.06-.22-.08-.35-.08-.22,0-.48.1-.64.26s-.27.4-.26.64l.03.24c.04.15.12.28.23.4h0Z" style="fill:#000; stroke-width:0px;"/><path d="M72.31,62c.08.16.15.32.22.48l-.09-.21c.12.28.22.57.31.86.07.22.21.42.41.54.1.07.21.1.33.11.12.03.24.02.36-.02.22-.07.43-.21.54-.41s.16-.46.09-.69c-.17-.53-.37-1.05-.62-1.55-.06-.1-.13-.19-.23-.25-.09-.08-.19-.13-.31-.16-.12-.04-.24-.04-.36-.02-.12,0-.23.04-.33.11-.19.12-.36.31-.41.54l-.03.24c0,.16.04.31.12.45h0Z" style="fill:#000; stroke-width:0px;"/></g></g><path id="mouth" d="M45.86,71.14l.37.98c.07.13.32.18.47.18l5.96-.28c.81-.04,1.62-.04,2.43,0l6.01.28c.15,0,.39.01.45-.13l.33-1.03" style="fill:none; stroke:#000; stroke-linecap:round; stroke-miterlimit:10; stroke-width:2px;"/></g></g></svg>